<?xml version="1.0" standalone="no"?>
<!DOCTYPE svg PUBLIC "-//W3C//DTD SVG 1.1//EN" "http://www.w3.org/Graphics/SVG/1.1/DTD/svg11.dtd" >
<svg xmlns="http://www.w3.org/2000/svg">
<metadata></metadata>
<defs>
<font id="helveticaneuecyrlight" horiz-adv-x="1138" >
<font-face units-per-em="2048" ascent="1638" descent="-410" />
<missing-glyph horiz-adv-x="569" />
<glyph horiz-adv-x="0" />
<glyph unicode="&#xd;" horiz-adv-x="681" />
<glyph unicode=" "  horiz-adv-x="569" />
<glyph unicode="&#x09;" horiz-adv-x="569" />
<glyph unicode="&#xa0;" horiz-adv-x="569" />
<glyph unicode="!" horiz-adv-x="493" d="M170 0v203h154v-203h-154zM178 1030v428h137v-428l-30 -663h-76z" />
<glyph unicode="&#x22;" horiz-adv-x="757" d="M172 1415h111l-15 -573h-82zM477 1415h109l-15 -573h-79z" />
<glyph unicode="#" d="M35 530h252l65 357h-231v98h250l80 430h110l-80 -430h281l80 430h110l-80 -430h234v-98h-252l-66 -357h232l2 -98h-252l-80 -432h-110l79 432h-280l-80 -432h-111l80 432h-231zM397 530h281l65 357h-280z" />
<glyph unicode="$" d="M47 422v10h127v-24q0 -311 348 -334v610q-211 45 -321.5 127t-110.5 254q0 168 116 272.5t316 116.5v148h76v-148q203 -2 318.5 -102.5t115.5 -276.5v-20h-125q0 147 -78.5 215.5t-230.5 77.5v-560q477 -70 477 -411q0 -184 -131 -296t-346 -112v-178h-76v178 q-231 4 -353 120t-122 333zM215 1075q0 -225 307 -270v541q-143 -10 -225 -82t-82 -189zM598 72q162 2 256 85t94 218q0 74 -27.5 126t-84 83.5t-106.5 48.5t-132 35v-596z" />
<glyph unicode="%" horiz-adv-x="1820" d="M139 1067q0 180 87 281.5t243 101.5t237.5 -96.5t81.5 -278.5q0 -188 -85 -292.5t-240 -104.5q-158 0 -241 100.5t-83 288.5zM252 1059q0 -141 54 -217t156.5 -76t159 80t56.5 225q0 291 -213 291t-213 -303zM414 -66l870 1557h105l-869 -1557h-106zM1040 362 q0 180 87 281.5t243 101.5t238 -96t82 -278q0 -188 -85 -293t-241 -105q-158 0 -241 100.5t-83 288.5zM1153 354q0 -141 54.5 -217t156.5 -76t158.5 80t56.5 226q0 290 -213 290t-213 -303z" />
<glyph unicode="&#x26;" horiz-adv-x="1251" d="M78 367q0 264 360 444q-53 68 -83.5 110t-62.5 111.5t-32 130.5q0 129 91 211t237 82q139 0 228 -82t89 -207q0 -123 -77.5 -211t-209.5 -172l308 -378q43 113 49 239h121q-4 -82 -29 -177t-59 -159l262 -309h-164l-166 203q-154 -231 -426 -232q-193 0 -314.5 109.5 t-121.5 286.5zM207 369q0 -121 92 -206t225 -85q211 0 342 211l-358 440q-158 -100 -207 -149q-94 -94 -94 -211zM381 1165q0 -55 25.5 -104t76 -108.5t66.5 -84.5q233 133 233 291q0 82 -57 137.5t-141 55.5q-88 0 -145.5 -53.5t-57.5 -133.5z" />
<glyph unicode="'" horiz-adv-x="569" d="M229 1415h111l-14 -573h-82z" />
<glyph unicode="(" horiz-adv-x="493" d="M104 537q0 236 78 495.5t211 437.5h103q-262 -418 -263 -935q1 -498 263 -926h-103q-147 260 -218 468t-71 460z" />
<glyph unicode=")" horiz-adv-x="493" d="M2 -391q262 428 262 926q0 518 -262 935h102q133 -178 211 -437.5t78 -495.5q0 -252 -70.5 -460t-218.5 -468h-102z" />
<glyph unicode="*" horiz-adv-x="720" d="M55 1241l27 78l235 -84v250h84v-250l236 84l29 -78l-240 -80l147 -200l-63 -50l-152 207l-149 -205l-68 50l148 198z" />
<glyph unicode="+" horiz-adv-x="1228" d="M104 444v101h453v444h111v-444h454v-101h-454v-444h-111v444h-453z" />
<glyph unicode="," horiz-adv-x="569" d="M190 -197q90 37 93 197h-80v211h168v-152q0 -135 -35 -219t-146 -123v86z" />
<glyph unicode="-" horiz-adv-x="757" d="M123 500v125h514v-125h-514z" />
<glyph unicode="." horiz-adv-x="569" d="M203 0v211h168v-211h-168z" />
<glyph unicode="/" horiz-adv-x="681" d="M-31 -35l641 1528h107l-639 -1528h-109z" />
<glyph unicode="0" d="M70 686q-1 754 497 754q502 0 502 -744q0 -729 -499.5 -729t-499.5 719zM203 682q0 -604 366 -604q365 0 365 622q0 625 -365 625q-96 0 -166.5 -44t-107.5 -107.5t-59.5 -157.5t-27.5 -168t-5 -166z" />
<glyph unicode="1" d="M201 1065v98q78 2 112.5 5t86 11.5t75 25t52 45t45 72.5t30.5 108h105v-1430h-136v1065h-370z" />
<glyph unicode="2" d="M74 0q4 57 13 107.5t32.5 95.5t41 77.5t59.5 73.5t62.5 61.5t77 60.5t77 53.5t87.5 58.5q74 49 102.5 68.5t90 69.5t88 89t51.5 97.5t25 121.5q0 133 -87 214t-231 81q-174 0 -250.5 -108.5t-76.5 -284.5h-127v18q0 227 122.5 357.5t337.5 130.5q201 0 322 -110.5 t121 -295.5q0 -59 -17.5 -115.5t-36 -97.5t-65.5 -91t-72.5 -75.5t-91 -71.5t-88.5 -60.5t-94 -61.5q-80 -51 -109.5 -71.5t-90 -71t-89.5 -99.5t-39 -108q8 0 19.5 1t15.5 1h764v-115h-944z" />
<glyph unicode="3" d="M68 424v33h125v-6q0 -174 97 -272.5t269 -98.5q158 0 258.5 89t100.5 228q0 162 -105.5 231.5t-271.5 69.5q-39 0 -70 -2v109h53q106 0 172 22q170 63 170 240q0 121 -83 192.5t-222 71.5q-156 0 -244 -93t-94 -265h-121q2 221 125 344t340 123q193 0 311.5 -101.5 t118.5 -265.5q0 -117 -64.5 -201t-176.5 -110q141 -29 217 -120t76 -230q0 -199 -136.5 -322t-357.5 -123q-223 0 -355 124t-132 333z" />
<glyph unicode="4" d="M61 356v121l672 957h109v-971h217v-107h-217v-356h-119v356h-662zM166 463h557v565q0 137 2 236q-225 -350 -559 -801z" />
<glyph unicode="5" d="M74 410h127q8 -152 101 -242t247 -90q156 0 259 108.5t103 272.5q0 168 -102 273.5t-262 105.5q-207 0 -318 -166l-114 4l141 739h715v-115h-621l-102 -495q113 143 325 143q205 0 337 -135t132 -346q0 -213 -139 -355.5t-354 -142.5q-213 0 -342 120t-133 321z" />
<glyph unicode="6" d="M84 672q0 373 134 572.5t386 199.5q180 0 291.5 -97.5t134.5 -277.5h-129q-18 123 -97 193.5t-204 70.5q-98 0 -172 -45t-113 -108.5t-64.5 -160.5t-32.5 -170t-11 -169q57 121 160.5 185.5t238.5 64.5q201 0 330 -133t129 -338q0 -213 -135 -352.5t-344 -139.5 q-129 0 -233.5 57.5t-170.5 161.5q-98 160 -98 486zM236 457q0 -164 99 -270.5t250.5 -106.5t249 104.5t97.5 266.5q0 164 -97 267t-253 103q-150 0 -248 -103.5t-98 -260.5z" />
<glyph unicode="7" d="M104 1294v121h924v-117q-252 -266 -403.5 -597.5t-178.5 -700.5h-139q18 348 180 694t416 600h-799z" />
<glyph unicode="8" d="M78 403q0 143 76 240.5t215 130.5q-111 31 -172.5 112t-61.5 195q0 166 119 266.5t315.5 100.5t314 -98.5t117.5 -259.5q0 -242 -231 -316q135 -29 213 -124t78 -234q0 -205 -132 -324t-362 -119q-223 0 -356 117t-133 313zM209 408q0 -147 98.5 -236.5t262 -89.5t261 88 t97.5 238q0 141 -98.5 226t-264.5 85q-162 0 -259 -86t-97 -225zM262 1075q0 -117 84 -185.5t223 -68.5q141 0 223 68.5t82 187.5q0 121 -81 188.5t-224 67.5q-141 0 -224 -69.5t-83 -188.5z" />
<glyph unicode="9" d="M70 956q0 213 135 351.5t342 138.5q260 0 395 -205q106 -164 107 -498q0 -221 -41 -374q-51 -193 -173 -296.5t-294 -103.5q-182 0 -301.5 101.5t-133.5 271.5h125q18 -121 102.5 -191.5t209.5 -70.5q338 0 375 522q4 47 4 107v39q-109 -264 -394 -265 q-201 0 -329.5 133.5t-128.5 339.5zM201 963q0 -162 96 -263.5t248 -101.5q154 0 251 101.5t97 261.5q0 162 -99 267t-251 105q-147 0 -244.5 -105.5t-97.5 -264.5z" />
<glyph unicode=":" horiz-adv-x="569" d="M203 0v211h168v-211h-168zM203 815v211h168v-211h-168z" />
<glyph unicode=";" horiz-adv-x="569" d="M190 -197q90 37 93 197h-80v211h168v-152q0 -135 -35 -219t-146 -123v86zM203 815v211h168v-211h-168z" />
<glyph unicode="&#x3c;" horiz-adv-x="1228" d="M98 477v111l1018 409v-110l-891 -355l891 -352v-108z" />
<glyph unicode="=" horiz-adv-x="1228" d="M104 281v98h1018v-98h-1018zM104 655v99h1018v-99h-1018z" />
<glyph unicode="&#x3e;" horiz-adv-x="1228" d="M113 72v108l891 352l-891 355v110l1017 -409v-111z" />
<glyph unicode="?" horiz-adv-x="1099" d="M100 1004q0 211 116 347t337 136q190 0 308 -104.5t118 -272.5q0 -70 -16.5 -126t-62.5 -114.5t-69.5 -82t-97.5 -93.5q-86 -82 -107.5 -142t-21.5 -192h-123q0 172 37 246t170 205l27 27q129 129 129 264q0 121 -81 196.5t-212 75.5q-166 0 -246 -106.5t-80 -263.5h-125 zM465 0v205h153v-205h-153z" />
<glyph unicode="@" horiz-adv-x="1638" d="M61 705q0 332 239 555t593 223q303 0 493.5 -168t190.5 -434q0 -215 -124 -374t-292 -159q-70 0 -112.5 39t-42.5 102q0 20 14 76q-111 -217 -301 -217q-121 0 -197 84t-76 217q0 197 121 344.5t283 147.5q102 0 168.5 -51.5t83.5 -143.5l49 166h102l-116 -389 q-47 -154 -47 -213q0 -41 26.5 -65.5t71.5 -24.5q121 0 219 142.5t98 318.5q0 236 -170 383t-444 147q-322 0 -539 -203.5t-217 -505.5q0 -297 212 -477t513 -180q310 0 582 197l41 -54q-297 -215 -625 -215q-334 0 -565.5 201t-231.5 531zM567 651q0 -106 49.5 -168.5 t131.5 -62.5q90 0 162.5 82t106.5 183t34 187q0 88 -49.5 142.5t-129.5 54.5q-117 0 -211 -129t-94 -289z" />
<glyph unicode="A" horiz-adv-x="1290" d="M-18 0l589 1462h154l582 -1462h-154l-176 459h-668l-178 -459h-149zM352 571h582l-287 760z" />
<glyph unicode="B" horiz-adv-x="1366" d="M147 0v1458h625q197 0 327 -90t130 -274q0 -117 -73 -207t-179 -115q135 -27 222 -113t87 -241q0 -203 -140 -310.5t-353 -107.5h-646zM283 119h436q88 0 154.5 10t133 40t103.5 92.5t37 154.5q0 88 -38 148.5t-107.5 88t-137 37.5t-153.5 10h-428v-581zM283 813h462 q145 0 246 61.5t101 200.5q0 82 -32 137.5t-91.5 82t-120 35.5t-139.5 9h-426v-526z" />
<glyph unicode="C" horiz-adv-x="1441" d="M80 727q0 324 181 545t499 221q221 0 396 -130t200 -343h-139q-33 162 -158 257t-303 95q-242 0 -390.5 -177t-148.5 -468t146.5 -466t388.5 -175q211 0 335.5 130t149.5 343h137q-23 -270 -193.5 -431t-432.5 -161q-303 0 -485.5 207t-182.5 553z" />
<glyph unicode="D" horiz-adv-x="1402" d="M145 0v1458h529q328 0 489.5 -189.5t161.5 -512.5q0 -332 -157.5 -544t-481.5 -212h-541zM285 119h366q535 0 535 629q0 279 -132 435t-380 156h-389v-1220z" />
<glyph unicode="E" horiz-adv-x="1214" d="M147 0v1458h1012v-119h-872v-526h817v-117h-817v-577h880v-119h-1020z" />
<glyph unicode="F" horiz-adv-x="1099" d="M145 0v1458h930v-119h-792v-524h704v-119h-704v-696h-138z" />
<glyph unicode="G" horiz-adv-x="1517" d="M80 715q0 344 191.5 559t500.5 215q236 0 403.5 -128t202.5 -353h-133q-31 168 -163 265t-308 97q-254 0 -405.5 -178t-151.5 -475q0 -289 152.5 -462t402.5 -173q195 0 331 113.5t165 302.5q8 57 8 129h-500v114h623v-741h-92l-25 207l-4 65q-66 -145 -200 -226 t-312 -81q-305 0 -495.5 208t-190.5 542z" />
<glyph unicode="H" horiz-adv-x="1441" d="M145 0v1458h140v-635h872v635h137v-1458h-137v705h-872v-705h-140z" />
<glyph unicode="I" horiz-adv-x="454" d="M158 0v1458h139v-1458h-139z" />
<glyph unicode="J" horiz-adv-x="1024" d="M49 414q0 29 2 57h133v-43q0 -174 58.5 -260t226.5 -86q164 0 219 90t55 260v1026h138v-1063q0 -428 -412 -428q-221 0 -320.5 113t-99.5 334z" />
<glyph unicode="K" horiz-adv-x="1327" d="M145 0v1458h138v-784l850 784h184l-658 -596l691 -862h-179l-610 768l-278 -254v-514h-138z" />
<glyph unicode="L" horiz-adv-x="1099" d="M150 0v1458h139v-1339h819v-119h-958z" />
<glyph unicode="M" horiz-adv-x="1705" d="M145 0v1458h189l424 -1040q20 -51 100 -275q10 27 43 123t53 148l418 1044h191v-1458h-133v881q0 213 16 458q-43 -135 -96 -264l-430 -1075h-125l-437 1063q-45 109 -96 268q16 -240 17 -446v-885h-134z" />
<glyph unicode="N" horiz-adv-x="1441" d="M145 0v1458h154l682 -989q115 -166 190 -305q-10 322 -10 385v909h133v-1458h-153l-678 979q-135 197 -193 311q10 -145 11 -348v-942h-136z" />
<glyph unicode="O" horiz-adv-x="1517" d="M72 729q0 342 189.5 553t496.5 211q305 0 496.5 -213t191.5 -555q0 -340 -190.5 -550t-499.5 -210q-307 0 -495.5 211t-188.5 553zM211 733q0 -293 149.5 -470t397.5 -177t398.5 176t150.5 465t-151.5 467t-399.5 178q-244 0 -394.5 -176t-150.5 -463z" />
<glyph unicode="P" horiz-adv-x="1290" d="M154 0v1458h624q211 0 335 -105.5t124 -303.5q0 -209 -125 -317.5t-338 -108.5h-481v-623h-139zM293 739h442q162 0 262.5 73t100.5 226q0 152 -92.5 226.5t-255.5 74.5h-457v-600z" />
<glyph unicode="Q" horiz-adv-x="1517" d="M72 721q0 342 190.5 554t495.5 212t495.5 -211t190.5 -549q0 -365 -215 -580l207 -157l-70 -88l-229 174q-143 -113 -377 -113q-307 0 -497.5 210t-190.5 548zM211 725v-8q0 -287 149 -460q152 -175 406 -175q152 0 264 78l-192 145l71 88l215 -168q182 203 183 504 q0 285 -151.5 461t-397.5 176q-244 0 -395.5 -177t-151.5 -464z" />
<glyph unicode="R" horiz-adv-x="1366" d="M147 0v1458h660q207 0 331 -97t124 -296q0 -141 -75 -234.5t-210 -125.5q133 -25 189.5 -102t66.5 -228q0 -4 2 -55.5t5 -88t10 -88t20.5 -88.5t32.5 -55h-158q-18 23 -26.5 80t-12.5 147t-4 97q-14 199 -96 263t-291 64h-428v-651h-140zM287 762h411q90 0 156 10 t132.5 39t102 91.5t35.5 154.5q0 282 -359 282h-3h-475v-577z" />
<glyph unicode="S" horiz-adv-x="1290" d="M80 469v12h133q0 -199 122 -299t337 -100q188 0 296.5 80t108.5 221q0 137 -103.5 195.5t-389.5 126.5q-92 20 -136.5 32.5t-118 43t-109.5 66.5t-64.5 97.5t-28.5 142.5q0 184 136 292t372 108q238 0 379 -114t151 -335h-135q-8 162 -115.5 247t-289.5 85 q-172 0 -268.5 -71.5t-96.5 -202.5q0 -47 11.5 -83t41 -62.5t55 -44t83 -35t92.5 -26.5t110 -26q82 -18 133.5 -30.5t117 -33t105.5 -41t83 -51t65.5 -67.5t37.5 -87t15 -112q0 -150 -83 -250t-201.5 -139t-263.5 -39q-272 0 -427 133.5t-155 366.5z" />
<glyph unicode="T" d="M-12 1339v119h1163v-119h-512v-1339h-139v1339h-512z" />
<glyph unicode="U" horiz-adv-x="1402" d="M133 551v907h139v-872q0 -252 95.5 -376t343.5 -124q127 0 211 35t129 104.5t62 155.5t17 207v870h140v-911q0 -283 -140.5 -430.5t-420.5 -147.5q-287 0 -431.5 147.5t-144.5 434.5z" />
<glyph unicode="V" horiz-adv-x="1214" d="M-18 1458h155l381 -1048q53 -147 92 -291q12 37 43 136t52 153l378 1050h148l-541 -1458h-162z" />
<glyph unicode="W" horiz-adv-x="1857" d="M2 1458h145l273 -1012q27 -100 67 -301q23 127 74 301l289 1012h158l295 -1026q55 -190 69 -287q8 33 29.5 132.5t36.5 152.5l274 1028h139l-403 -1458h-150l-297 1026q-57 203 -73 301q-16 -53 -42 -153.5t-38 -143.5l-291 -1030h-151z" />
<glyph unicode="X" horiz-adv-x="1175" d="M-29 0l531 750l-498 708h164l326 -467q18 -27 47.5 -77t42.5 -68q51 74 94 147l334 465h153l-497 -708l526 -750h-168l-364 522q-43 61 -55.5 85t-22.5 40q-10 -10 -25.5 -32.5t-34 -51t-24.5 -39.5l-369 -524h-160z" />
<glyph unicode="Y" horiz-adv-x="1251" d="M-20 1458h165l408 -610q12 -18 25.5 -40t30 -48.5t24.5 -40.5q35 66 74 123l409 616h158l-578 -856v-602h-137v602z" />
<glyph unicode="Z" horiz-adv-x="1175" d="M10 0v125l963 1214h-895v119h1052v-121l-962 -1218h983v-119h-1141z" />
<glyph unicode="[" horiz-adv-x="493" d="M156 -377v1856h331v-101h-211v-1652h211v-103h-331z" />
<glyph unicode="\" horiz-adv-x="681" d="M-31 1493h107l641 -1528h-109z" />
<glyph unicode="]" horiz-adv-x="493" d="M6 -274h211v1650h-211v103h332v-1856h-332v103z" />
<glyph unicode="^" horiz-adv-x="1228" d="M217 608l344 850h109l342 -850h-117l-283 721l-276 -721h-119z" />
<glyph unicode="_" horiz-adv-x="1024" d="M0 -154h1024v-102h-1024v102z" />
<glyph unicode="`" horiz-adv-x="378" d="M-68 1503h164l213 -289h-102z" />
<glyph unicode="a" horiz-adv-x="1062" d="M66 266q0 285 391 326q20 2 57 5t54.5 5t45 5t41 5t33 6.5t30.5 8.5t23.5 9t22.5 11q37 25 37 101q0 125 -69.5 176t-205.5 51q-133 0 -203.5 -60.5t-82.5 -187.5h-123q8 170 118.5 262t305.5 92q180 0 283.5 -77.5t103.5 -225.5v-573q0 -41 2 -58.5t17.5 -33t49.5 -15.5 q27 0 50 6v-98q-47 -16 -103 -16q-84 0 -110.5 51t-26.5 141q-133 -211 -397 -211q-162 0 -253 78t-91 217zM201 279q0 -92 65.5 -146.5t175.5 -54.5q150 0 254.5 89t104.5 234v172q-18 -20 -60.5 -33.5t-77 -19.5t-118.5 -16q-20 -2 -31 -4q-66 -8 -107.5 -18.5t-96 -34 t-82 -65.5t-27.5 -103z" />
<glyph unicode="b" horiz-adv-x="1175" d="M125 0v1458h125v-604q47 111 146.5 171t228.5 60q215 0 343 -151.5t128 -405.5q0 -258 -129 -408.5t-349 -150.5q-135 0 -233 60.5t-143 175.5v-205h-117zM246 526q0 -207 98 -329.5t264 -122.5q162 0 259.5 122.5t97.5 329.5t-97.5 329t-261.5 122q-166 0 -263 -122 t-97 -329z" />
<glyph unicode="c" horiz-adv-x="1062" d="M74 516q0 258 134 412.5t357 154.5q182 0 296 -96t136 -266h-131q-51 256 -299 256q-166 0 -263 -122t-97 -329t94 -328.5t254 -121.5q133 0 217 78.5t105 222.5h129q-27 -184 -142.5 -296t-302.5 -112q-221 0 -354 149.5t-133 397.5z" />
<glyph unicode="d" horiz-adv-x="1175" d="M78 526q0 254 128 405.5t343 151.5q274 0 375 -227v602h125v-1458h-117v207q-47 -117 -146.5 -177.5t-232.5 -60.5q-219 0 -347 150.5t-128 406.5zM207 528q0 -209 97 -331.5t261 -122.5q168 0 265.5 120.5t97.5 331.5q0 188 -92.5 319.5t-272.5 131.5q-162 0 -259 -122 t-97 -327z" />
<glyph unicode="e" horiz-adv-x="1062" d="M66 514q0 250 134 408.5t347 158.5q223 0 343 -157.5t120 -391.5v-36h-813q0 -182 89 -304t267 -122q260 0 321 276h125q-35 -178 -151.5 -279.5t-298.5 -101.5q-219 0 -351 149.5t-132 399.5zM197 600h684q-10 176 -100.5 275.5t-237.5 99.5q-160 0 -243 -104.5 t-103 -270.5z" />
<glyph unicode="f" horiz-adv-x="530" d="M10 948v105h180v121q0 150 60.5 222t208.5 72q39 0 98 -8v-108q-43 6 -86 6q-45 0 -74.5 -10.5t-45 -23.5t-22.5 -45t-8.5 -52.5t-1.5 -69.5v-104h211v-105h-211v-948h-129v948h-180z" />
<glyph unicode="g" d="M74 535q0 248 128 397t339 149q250 0 358 -227v199h117v-996q0 -471 -471 -471q-193 0 -305.5 83t-122.5 235h129q31 -217 305 -217q186 0 265 96t79 285v176q-106 -231 -365 -232q-209 0 -332.5 142.5t-123.5 380.5zM203 545q0 -193 92 -307.5t248 -114.5 q162 0 256 117.5t94 318.5q0 188 -94 300t-252 112t-251 -115t-93 -311z" />
<glyph unicode="h" horiz-adv-x="1099" d="M123 0v1458h127q0 -524 -2 -604q113 225 364 225q182 0 275.5 -99t93.5 -284v-696h-129v680q0 291 -270 291q-170 0 -251 -116t-81 -300v-555h-127z" />
<glyph unicode="i" horiz-adv-x="378" d="M125 0v1053h129v-1053h-129zM125 1253v211h129v-211h-129z" />
<glyph unicode="j" horiz-adv-x="378" d="M-57 -291q23 -2 49 -2q55 0 80.5 9.5t43 56.5t17.5 145v1135h127v-1123q0 -88 -7 -139t-30.5 -101t-77 -71.5t-139.5 -21.5q-20 0 -63 6v106zM133 1255v211h127v-211h-127z" />
<glyph unicode="k" horiz-adv-x="1024" d="M127 0v1458h123v-919l588 514h172l-451 -387l481 -666h-161l-420 578l-209 -179v-399h-123z" />
<glyph unicode="l" horiz-adv-x="378" d="M127 0v1458h127v-1458h-127z" />
<glyph unicode="m" horiz-adv-x="1705" d="M125 0v1053h121v-185q68 106 149.5 159.5t200.5 53.5q115 0 193.5 -54t107.5 -150q108 204 348 204h2q143 0 240.5 -83t97.5 -246v-752h-129v717q0 250 -244 250q-139 0 -215.5 -87t-76.5 -235v-645h-127v707q0 260 -232 260q-154 0 -230.5 -102.5t-76.5 -266.5v-598 h-129z" />
<glyph unicode="n" horiz-adv-x="1099" d="M123 0v1053h121v-199q66 117 152.5 172t219.5 55q164 0 264.5 -90t100.5 -274v-717h-129v676q0 293 -268 293q-152 0 -242 -101.5t-90 -298.5v-569h-129z" />
<glyph unicode="o" d="M70 526q0 254 136 405.5t365 151.5q227 0 361.5 -151.5t134.5 -409.5q0 -256 -133 -404.5t-362.5 -148.5t-365.5 150.5t-136 406.5zM201 526q0 -209 99 -329.5t273 -120.5q168 0 266.5 120.5t98.5 327.5t-100.5 329t-268.5 122t-268 -122t-100 -327z" />
<glyph unicode="p" horiz-adv-x="1175" d="M129 -393v1446h117v-203q115 233 377 233q215 0 345 -153.5t130 -407.5q0 -250 -129 -402.5t-342 -152.5q-266 0 -373 228v-588h-125zM250 524q0 -207 97 -327.5t263 -120.5q162 0 259.5 121.5t97.5 324.5q0 207 -97.5 331t-263.5 124t-261 -121t-95 -332z" />
<glyph unicode="q" horiz-adv-x="1175" d="M78 522q0 258 130 410.5t349 152.5q262 0 371 -233v201h119v-1444h-127q0 420 2 588q-106 -225 -377 -226q-215 0 -341 148.5t-126 402.5zM207 522q0 -205 96 -324.5t260 -119.5q166 0 263.5 122t97.5 330.5t-95.5 328.5t-263.5 120q-164 0 -261 -123t-97 -334z" />
<glyph unicode="r" horiz-adv-x="645" d="M139 0v1053h121v-252q68 145 156 205.5t246 62.5v-131q-8 0 -19.5 1t-15.5 1q-119 0 -212 -68.5t-124 -181.5q-25 -96 -25 -260v-430h-127z" />
<glyph unicode="s" horiz-adv-x="985" d="M66 344h124q0 -131 82 -200.5t230 -69.5q129 0 207.5 56t78.5 149q0 49 -25.5 85.5t-68.5 58t-85 35t-89 23.5q-14 2 -20 4q-14 4 -65.5 15.5t-72 16.5t-65.5 19.5t-65.5 26.5t-52.5 35t-47 48.5t-26.5 60t-11.5 77.5q0 137 103.5 217t284 80t289 -86t108.5 -250h-125 q-18 229 -285 230q-113 0 -179.5 -47t-66.5 -127q0 -39 14.5 -67.5t33 -46t64.5 -34t80 -26t109 -25.5q68 -16 109 -26.5t101.5 -36t95 -55t60 -80t25.5 -113.5q0 -145 -115.5 -234.5t-301.5 -89.5q-203 0 -315.5 98.5t-116.5 278.5z" />
<glyph unicode="t" horiz-adv-x="606" d="M12 948v105h187v321h127v-321h217v-105h-217v-667q0 -53 2 -75t13 -51.5t40 -40t78 -10.5q29 0 84 7v-111q-63 -8 -113 -8q-190 0 -219 121q-12 51 -12 231v604h-187z" />
<glyph unicode="u" horiz-adv-x="1099" d="M121 352v701h129v-645q0 -164 60.5 -245t205.5 -81q154 0 242 111.5t88 277.5v582h127v-1053h-119v195q-117 -225 -371 -226q-168 0 -265 97.5t-97 285.5z" />
<glyph unicode="v" horiz-adv-x="948" d="M8 1053h137l246 -641q29 -80 96 -285q61 197 97 295l227 631h129l-387 -1053h-139z" />
<glyph unicode="w" horiz-adv-x="1517" d="M14 1053h140l200 -641q18 -55 74 -273q61 246 70 277l188 637h148l200 -668q18 -59 60 -246q33 139 63 242l211 672h133l-342 -1053h-139l-209 692q-27 90 -53 207q-29 -119 -53 -207l-205 -692h-144z" />
<glyph unicode="x" horiz-adv-x="985" d="M2 0l408 553l-377 500h164l227 -308q12 -14 33.5 -47.5t31.5 -50.5q59 86 68 98l234 308h151l-373 -492l416 -561h-164l-280 385q-6 8 -15.5 21.5t-18.5 28t-20 30.5q-23 -37 -53 -78l-278 -387h-154z" />
<glyph unicode="y" horiz-adv-x="948" d="M-2 1053h141l285 -725q16 -43 63 -187q53 174 64 201l260 711h131l-414 -1092q-78 -209 -135 -284.5t-176 -75.5q-51 0 -113 10v113q57 -14 93 -15q78 0 117.5 57.5t91.5 198.5q10 29 16 43z" />
<glyph unicode="z" horiz-adv-x="948" d="M33 0v104l684 840h-639v109h807v-90l-697 -854h725v-109h-880z" />
<glyph unicode="{" horiz-adv-x="681" d="M8 518v72q285 0 285 307v156q0 217 82 316t297 112v-72q-152 -8 -205 -84t-53 -233v-134q0 -84 -9.5 -142t-35 -117.5t-81 -95.5t-138.5 -48q88 -16 144 -51t80.5 -93.5t32 -114.5t7.5 -146v-113q0 -174 51 -251t207 -85v-72q-225 14 -302 117.5t-77 337.5v129 q0 160 -61.5 224.5t-223.5 80.5z" />
<glyph unicode="|" horiz-adv-x="454" d="M172 -438v2048h111v-2048h-111z" />
<glyph unicode="}" horiz-adv-x="681" d="M8 -299q156 8 207 85t51 251v113q0 90 7.5 146t32 114.5t80.5 93.5t144 51q-84 12 -139 48t-80.5 95.5t-35 117.5t-9.5 142v134q0 158 -53 233.5t-205 83.5v72q215 -12 297 -111.5t82 -316.5v-156q0 -307 285 -307v-72q-162 -16 -223.5 -80.5t-61.5 -224.5v-129 q0 -233 -77 -336.5t-302 -118.5v72z" />
<glyph unicode="~" horiz-adv-x="1228" d="M82 373q23 123 77 195.5t171 72.5q82 0 317 -82q8 -4 57.5 -21.5t73 -25.5t62.5 -16.5t67 -8.5q133 0 170 168h74q-10 -113 -71.5 -188.5t-170.5 -75.5q-80 0 -278 68q-10 4 -88 31.5t-126 40t-87 12.5q-63 0 -110.5 -47t-57.5 -123h-80z" />
<glyph unicode="&#xa3;" d="M88 80q229 174 229 379q0 98 -55 213h-168v67h127q-41 74 -58.5 108t-35.5 95.5t-18 120.5q0 174 130 283.5t336 109.5q231 0 354.5 -127t123.5 -356h-127q-4 180 -95.5 275t-257.5 95q-150 0 -242.5 -78.5t-92.5 -205.5q0 -29 6 -58.5t12 -52t21.5 -54.5t24.5 -49.5 t29.5 -54t28.5 -51.5h328v-67h-291q45 -98 45 -189q0 -193 -223 -385q133 63 225 64q80 0 172 -31q141 -47 187 -47q129 0 241 106l66 -96q-121 -125 -301 -125q-29 0 -53.5 2t-53 10.5t-42 12.5t-51.5 17.5t-52 17.5q-92 31 -166 30q-66 0 -113 -19.5t-116 -66.5z" />
<glyph unicode="&#xa9;" horiz-adv-x="1638" d="M68 723q0 311 220 531.5t531 220.5t531.5 -220.5t220.5 -531.5q0 -309 -220.5 -529.5t-531.5 -220.5t-531 219.5t-220 530.5zM139 725q0 -283 200 -481.5t480.5 -198.5t480 198.5t199.5 479.5t-199.5 480.5t-480 199.5t-480.5 -198.5t-200 -479.5zM434 729.5 q0 188.5 111.5 313t279.5 124.5q141 0 240.5 -84t110.5 -211h-91q-18 96 -85.5 153.5t-168.5 57.5q-127 0 -207.5 -97t-80.5 -251q0 -158 84 -259t217 -101q94 0 159.5 52t88.5 142h90q-16 -121 -112.5 -199.5t-227.5 -78.5q-174 0 -291 125t-117 313.5z" />
<glyph unicode="&#xab;" horiz-adv-x="872" d="M121 481v127l274 256v-133l-192 -186l192 -183v-137zM451 479v127l274 260v-135l-193 -186l193 -185v-135z" />
<glyph unicode="&#xad;" horiz-adv-x="757" d="M123 500v125h514v-125h-514z" />
<glyph unicode="&#xae;" horiz-adv-x="819" d="M35 1106q0 156 109.5 265.5t263.5 109.5q156 0 265 -109.5t109 -265.5t-109.5 -266.5t-264.5 -110.5q-154 0 -263.5 110.5t-109.5 266.5zM90 1104q0 -131 93 -225.5t224.5 -94.5t225.5 94.5t94 225.5q0 133 -94 227t-225.5 94t-224.5 -94t-93 -227zM264 920v376h142 q172 0 172 -110q0 -66 -70 -90q63 -31 63 -119q0 -33 13 -57h-68q-6 20 -7 41.5t-3 29.5q-8 55 -30.5 66.5t-90.5 11.5h-57v-149h-64zM328 1122h73q113 0 113 64q0 23 -10 35t-34 16t-33 5t-38 1h-71v-121z" />
<glyph unicode="&#xbb;" horiz-adv-x="872" d="M147 227v133l193 187l-193 184v133l273 -254v-125zM477 227v133l193 185l-193 182v139l275 -260v-123z" />
<glyph unicode="&#x401;" horiz-adv-x="1214" d="M147 0v1458h1012v-119h-872v-526h817v-117h-817v-577h880v-119h-1020zM422 1597v209h135v-209h-135zM795 1597v209h133v-209h-133z" />
<glyph unicode="&#x402;" horiz-adv-x="1536" d="M-10 1337v121h1159v-121h-551v-659h6q49 102 148.5 156.5t220.5 54.5q211 0 341 -150.5t130 -388.5q0 -262 -144.5 -433t-392.5 -171v121q395 27 396 485q0 188 -91.5 304t-250.5 116q-176 0 -269.5 -110.5t-93.5 -319.5v-342h-139v1337h-469z" />
<glyph unicode="&#x403;" horiz-adv-x="1062" d="M145 0v1458h904v-121h-766v-1337h-138zM410 1559l202 288h158l-258 -288h-102z" />
<glyph unicode="&#x404;" horiz-adv-x="1441" d="M80 727q0 324 181 545t499 221q221 0 396 -130t200 -343h-139q-33 162 -158 257t-303 95q-223 0 -367.5 -152.5t-167.5 -406.5h791v-117h-795q10 -279 154.5 -444.5t380.5 -165.5q199 0 321.5 114.5t157.5 307.5h137q-35 -250 -203 -395.5t-417 -145.5q-303 0 -485.5 207 t-182.5 553z" />
<glyph unicode="&#x405;" horiz-adv-x="1290" d="M80 469v12h133q0 -199 122 -299t337 -100q188 0 296.5 80t108.5 221q0 137 -103.5 195.5t-389.5 126.5q-92 20 -136.5 32.5t-118 43t-109.5 66.5t-64.5 97.5t-28.5 142.5q0 184 136 292t372 108q238 0 379 -114t151 -335h-135q-8 162 -115.5 247t-289.5 85 q-172 0 -268.5 -71.5t-96.5 -202.5q0 -47 11.5 -83t41 -62.5t55 -44t83 -35t92.5 -26.5t110 -26q82 -18 133.5 -30.5t117 -33t105.5 -41t83 -51t65.5 -67.5t37.5 -87t15 -112q0 -150 -83 -250t-201.5 -139t-263.5 -39q-272 0 -427 133.5t-155 366.5z" />
<glyph unicode="&#x406;" horiz-adv-x="454" d="M158 0v1458h139v-1458h-139z" />
<glyph unicode="&#x407;" horiz-adv-x="454" d="M-25 1597v209h134v-209h-134zM158 0v1458h139v-1458h-139zM346 1597v209h133v-209h-133z" />
<glyph unicode="&#x408;" horiz-adv-x="1024" d="M49 414q0 29 2 57h133v-43q0 -174 58.5 -260t226.5 -86q164 0 219 90t55 260v1026h138v-1063q0 -428 -412 -428q-221 0 -320.5 113t-99.5 334z" />
<glyph unicode="&#x409;" horiz-adv-x="2048" d="M20 -2v115q41 -25 138 -25q84 0 127 104.5t51 370.5l29 895h794v-614h395q201 0 318 -114t117 -308.5t-117 -308t-318 -113.5h-534v1339h-524l-27 -858q-14 -512 -307 -512q-76 0 -142 29zM1159 119h365q154 0 239.5 81t85.5 222t-86 222t-239 81h-365v-606z" />
<glyph unicode="&#x40a;" horiz-adv-x="2048" d="M147 0v1458h140v-614h714v614h140v-614h415q201 0 318 -114t117 -308.5t-117 -308t-318 -113.5h-555v725h-714v-725h-140zM1141 119h385q154 0 239.5 81t85.5 222t-86 222t-239 81h-385v-606z" />
<glyph unicode="&#x40b;" horiz-adv-x="1536" d="M-10 1339v119h1159v-119h-551v-538q61 33 162 60.5t162 27.5q121 0 209 -25.5t137 -64.5t78.5 -98.5t38 -111.5t8.5 -120v-469h-140v461q0 43 -4 77.5t-23.5 81t-51 76t-93 51t-145.5 21.5q-80 0 -177 -28.5t-161 -65.5v-674h-139v1339h-469z" />
<glyph unicode="&#x40c;" horiz-adv-x="1327" d="M145 0v1458h138v-784q86 84 96 92l754 692h184l-658 -596l691 -862h-179l-610 768l-278 -254v-514h-138zM532 1559l203 288h158l-258 -288h-103z" />
<glyph unicode="&#x40e;" horiz-adv-x="1214" d="M-14 1458h149l477 -973l473 973h148l-582 -1204q-84 -174 -163.5 -229.5t-200.5 -55.5q-70 0 -152 37v119q59 -37 164 -37q121 0 217 201l19 39zM332 1815h80q10 -78 65 -123t146 -45q88 0 145 44t72 124h80q-47 -266 -299 -267q-127 0 -200 69t-89 198z" />
<glyph unicode="&#x40f;" horiz-adv-x="1441" d="M147 0v1458h140v-1339h868v1339h139v-1458h-503v-393h-140v393h-504z" />
<glyph unicode="&#x410;" horiz-adv-x="1290" d="M-18 0l589 1462h154l582 -1462h-154l-176 459h-668l-178 -459h-149zM352 571h582l-287 760z" />
<glyph unicode="&#x411;" horiz-adv-x="1366" d="M147 0v1458h1010v-119h-870v-495h551q201 0 317.5 -114t116.5 -308.5t-117 -308t-317 -113.5h-691zM287 119h520q154 0 240 81t86 222t-86 222t-240 81h-520v-606z" />
<glyph unicode="&#x412;" horiz-adv-x="1366" d="M147 0v1458h625q197 0 327 -90t130 -274q0 -117 -73 -207t-179 -115q135 -27 222 -113t87 -241q0 -203 -140 -310.5t-353 -107.5h-646zM283 119h436q88 0 154.5 10t133 40t103.5 92.5t37 154.5q0 88 -38 148.5t-107.5 88t-137 37.5t-153.5 10h-428v-581zM283 813h462 q145 0 246 61.5t101 200.5q0 82 -32 137.5t-91.5 82t-120 35.5t-139.5 9h-426v-526z" />
<glyph unicode="&#x413;" horiz-adv-x="1062" d="M145 0v1458h904v-119h-766v-1339h-138z" />
<glyph unicode="&#x414;" horiz-adv-x="1441" d="M12 119h133q55 102 95.5 209.5t63 234.5t35.5 207t18 227.5t5 187.5v189v84h906v-1339h153v-512h-139v393h-1130v-393h-140v512zM293 119h835v1220h-626v-26q0 -176 -4 -278.5t-20.5 -282t-63.5 -336t-121 -297.5z" />
<glyph unicode="&#x415;" horiz-adv-x="1214" d="M147 0v1458h1012v-119h-872v-526h817v-117h-817v-577h880v-119h-1020z" />
<glyph unicode="&#x416;" horiz-adv-x="2027" d="M-16 0l657 831l-606 627h188l721 -766v766h139v-766l721 766h189l-607 -627l658 -831h-180l-576 729l-205 -213v-516h-139v516l-205 213l-575 -729h-180z" />
<glyph unicode="&#x417;" horiz-adv-x="1290" d="M82 469v12h133q0 -199 122 -299t337 -100q178 0 286.5 99.5t108.5 244.5q0 125 -95 204t-237 79h-233v118h233q125 0 209 68t84 188q0 145 -98 219t-256 74q-180 0 -292 -85t-120 -247h-135q10 219 157.5 334t385.5 115q219 0 358 -100.5t139 -296.5q0 -109 -64.5 -194 t-150.5 -116v-6q119 -31 186.5 -121t67.5 -231q0 -57 -16 -116.5t-57 -122t-101.5 -110.5t-157 -79t-212.5 -31q-272 0 -427 133.5t-155 366.5z" />
<glyph unicode="&#x418;" horiz-adv-x="1441" d="M147 0v1458h140v-1308l827 1308h180v-1458h-139v1309l-827 -1309h-181z" />
<glyph unicode="&#x419;" horiz-adv-x="1441" d="M147 0v1458h140v-1308l827 1308h180v-1458h-139v1309l-827 -1309h-181zM428 1815h80q10 -78 65.5 -123t145.5 -45q88 0 145.5 44t71.5 124h80q-47 -266 -299 -267q-127 0 -200 69t-89 198z" />
<glyph unicode="&#x41a;" horiz-adv-x="1327" d="M145 0v1458h138v-784l850 784h184l-658 -596l691 -862h-179l-610 768l-278 -254v-514h-138z" />
<glyph unicode="&#x41b;" horiz-adv-x="1366" d="M16 -2v115q39 -25 144 -25q84 0 127 104.5t51 370.5l29 895h858v-1458h-140v1339h-587l-27 -858q-14 -512 -307 -512q-82 0 -148 29z" />
<glyph unicode="&#x41c;" horiz-adv-x="1705" d="M145 0v1458h189l424 -1040q20 -51 100 -275q10 27 43 123t53 148l418 1044h191v-1458h-133v881q0 213 16 458q-43 -135 -96 -264l-430 -1075h-125l-437 1063q-45 109 -96 268q16 -240 17 -446v-885h-134z" />
<glyph unicode="&#x41d;" horiz-adv-x="1441" d="M145 0v1458h140v-635h870v635h139v-1458h-139v705h-870v-705h-140z" />
<glyph unicode="&#x41e;" horiz-adv-x="1517" d="M72 729q0 342 189.5 553t496.5 211q305 0 496.5 -213t191.5 -555q0 -340 -190.5 -550t-499.5 -210q-307 0 -495.5 211t-188.5 553zM211 733q0 -293 149.5 -470t397.5 -177t398.5 176t150.5 465t-151.5 467t-399.5 178q-244 0 -394.5 -176t-150.5 -463z" />
<glyph unicode="&#x41f;" horiz-adv-x="1441" d="M145 0v1458h1149v-1458h-139v1339h-870v-1339h-140z" />
<glyph unicode="&#x420;" horiz-adv-x="1290" d="M154 0v1458h624q211 0 335 -105.5t124 -303.5q0 -209 -125 -317.5t-338 -108.5h-481v-623h-139zM293 739h442q162 0 262.5 73t100.5 226q0 152 -92.5 226.5t-255.5 74.5h-457v-600z" />
<glyph unicode="&#x421;" horiz-adv-x="1441" d="M80 727q0 324 181 545t499 221q221 0 396 -130t200 -343h-139q-33 162 -158 257t-303 95q-242 0 -390.5 -177t-148.5 -468t146.5 -466t388.5 -175q211 0 335.5 130t149.5 343h137q-23 -270 -193.5 -431t-432.5 -161q-303 0 -485.5 207t-182.5 553z" />
<glyph unicode="&#x422;" d="M-12 1339v119h1163v-119h-512v-1339h-139v1339h-512z" />
<glyph unicode="&#x423;" horiz-adv-x="1214" d="M-14 1458h149l477 -973l473 973h148l-582 -1204q-84 -174 -163.5 -229.5t-200.5 -55.5q-70 0 -152 37v119q59 -37 164 -37q121 0 217 201l19 39z" />
<glyph unicode="&#x424;" horiz-adv-x="1536" d="M61 741q0 262 184.5 409.5t452.5 147.5v160h140v-160q268 0 452.5 -147.5t184.5 -409.5q0 -270 -185.5 -417.5t-451.5 -147.5v-176h-140v176q-266 0 -451.5 147.5t-185.5 417.5zM199 741q0 -213 137 -322.5t362 -125.5v887q-229 -12 -364 -118t-135 -321zM838 293 q225 16 362 125.5t137 322.5q0 215 -135 320.5t-364 118.5v-887z" />
<glyph unicode="&#x425;" horiz-adv-x="1175" d="M-29 0l531 750l-498 708h164l326 -467q18 -27 47.5 -77t42.5 -68q51 74 94 147l334 465h153l-497 -708l526 -750h-168l-364 522q-43 61 -55.5 85t-22.5 40q-10 -10 -25.5 -32.5t-34 -51t-24.5 -39.5l-369 -524h-160z" />
<glyph unicode="&#x426;" horiz-adv-x="1478" d="M147 0v1458h140v-1339h868v1339h139v-1339h154v-512h-139v393h-1162z" />
<glyph unicode="&#x427;" horiz-adv-x="1310" d="M104 1055v403h140v-395q0 -43 4 -78t23.5 -81t51 -75.5t93 -51t145.5 -21.5q225 0 463 59v643h139v-1458h-139v696q-74 -18 -217 -39.5t-232 -21.5q-121 0 -208.5 25.5t-137 64.5t-79 98.5t-38 111.5t-8.5 120z" />
<glyph unicode="&#x428;" horiz-adv-x="2138" d="M147 0v1458h140v-1339h712v1339h140v-1339h712v1339h140v-1458h-1844z" />
<glyph unicode="&#x429;" horiz-adv-x="2174" d="M147 0v1458h140v-1339h712v1339h140v-1339h712v1339h140v-1339h153v-512h-139v393h-1858z" />
<glyph unicode="&#x42a;" horiz-adv-x="1607" d="M-10 1339v119h614v-614h510q201 0 317.5 -114t116.5 -308.5t-116.5 -308t-317.5 -113.5h-649v1339h-475zM604 119h479q154 0 240 81t86 222t-86 222t-240 81h-479v-606z" />
<glyph unicode="&#x42b;" horiz-adv-x="1722" d="M147 0v1458h140v-614h510q201 0 317.5 -114t116.5 -308.5t-117 -308t-317 -113.5h-650zM287 119h479q154 0 240 81t86 222t-86 222t-240 81h-479v-606zM1436 0v1458h139v-1458h-139z" />
<glyph unicode="&#x42c;" horiz-adv-x="1290" d="M147 0v1458h140v-614h510q201 0 317.5 -114t116.5 -308.5t-117 -308t-317 -113.5h-650zM287 119h479q154 0 240 81t86 222t-86 222t-240 81h-479v-606z" />
<glyph unicode="&#x42d;" horiz-adv-x="1441" d="M74 508h137q35 -193 158 -307.5t321 -114.5q236 0 380 166t155 444h-774v117h770q-23 254 -167.5 406.5t-367.5 152.5q-178 0 -303 -95t-158 -257h-139q25 213 200 343t396 130q317 0 498.5 -221t181.5 -545q0 -346 -182.5 -553t-485.5 -207q-250 0 -417.5 145.5 t-202.5 395.5z" />
<glyph unicode="&#x42e;" horiz-adv-x="2048" d="M143 0v1458h140v-635h323q27 303 212 486.5t470 183.5q305 0 496.5 -213t191.5 -555q0 -340 -190.5 -550t-499.5 -210q-301 0 -488.5 204t-195.5 536h-319v-705h-140zM741 733q0 -293 149.5 -470t397.5 -177t398.5 176t150.5 465t-151.5 467t-399.5 178 q-244 0 -394.5 -176t-150.5 -463z" />
<glyph unicode="&#x42f;" horiz-adv-x="1290" d="M8 0l502 647q-195 6 -308.5 113.5t-113.5 294.5q0 190 119 296.5t323 106.5h613v-1458h-139v647h-314l-502 -647h-180zM227 1054.5q0 -139.5 89.5 -214t244.5 -74.5h443v573h-443q-156 0 -245 -72.5t-89 -212z" />
<glyph unicode="&#x430;" horiz-adv-x="1062" d="M66 266q0 285 391 326q20 2 57 5t54.5 5t45 5t41 5t33 6.5t30.5 8.5t23.5 9t22.5 11q37 25 37 101q0 125 -69.5 176t-205.5 51q-133 0 -203.5 -60.5t-82.5 -187.5h-123q8 170 118.5 262t305.5 92q180 0 283.5 -77.5t103.5 -225.5v-573q0 -41 2 -58.5t17.5 -33t49.5 -15.5 q27 0 50 6v-98q-47 -16 -103 -16q-84 0 -110.5 51t-26.5 141q-133 -211 -397 -211q-162 0 -253 78t-91 217zM201 279q0 -92 65.5 -146.5t175.5 -54.5q150 0 254.5 89t104.5 234v172q-18 -20 -60.5 -33.5t-77 -19.5t-118.5 -16q-20 -2 -31 -4q-66 -8 -107.5 -18.5t-96 -34 t-82 -65.5t-27.5 -103z" />
<glyph unicode="&#x431;" d="M88 606q0 408 131 611q70 106 170 155t254 60l98 6q78 4 109 16t43 39h143q-16 -90 -78.5 -125t-205.5 -45l-156 -10q-178 -12 -273.5 -130t-129.5 -362h6q53 106 158.5 172t232.5 66q215 0 346 -146.5t131 -394.5t-135 -398.5t-354 -150.5q-139 0 -238.5 52.5 t-153 145.5t-76 200.5t-22.5 238.5zM217 518q0 -195 101.5 -317.5t259 -122.5t259 122.5t101.5 317.5q0 190 -100.5 311t-253.5 121q-164 0 -265.5 -117.5t-101.5 -314.5z" />
<glyph unicode="&#x432;" horiz-adv-x="1062" d="M121 0v1053h493q162 0 250 -64.5t88 -185.5q0 -190 -182 -242v-4q223 -39 223 -262q0 -143 -98 -219t-281 -76h-493zM250 109h350q264 -1 264 200q0 190 -264 191h-350v-391zM250 600h350q109 0 166 45t57 125q0 174 -223 174h-350v-344z" />
<glyph unicode="&#x433;" horiz-adv-x="819" d="M133 0v1053h698v-109h-569v-944h-129z" />
<glyph unicode="&#x434;" d="M12 109h125q145 268 146 809v135h688v-944h147v-445h-129v336h-848v-336h-129v445zM270 109h572v835h-434v-70q0 -496 -138 -765z" />
<glyph unicode="&#x435;" horiz-adv-x="1062" d="M66 514q0 250 134 408.5t347 158.5q223 0 343 -157.5t120 -391.5v-36h-813q0 -182 89 -304t267 -122q260 0 321 276h125q-35 -178 -151.5 -279.5t-298.5 -101.5q-219 0 -351 149.5t-132 399.5zM197 600h684q-10 176 -100.5 275.5t-237.5 99.5q-160 0 -243 -104.5 t-103 -270.5z" />
<glyph unicode="&#x436;" horiz-adv-x="1517" d="M-10 0l456 614l-411 439h174l485 -537v537h129v-535l486 535h174l-412 -439l457 -614h-158l-389 528l-158 -163v-365h-129v365l-157 163l-390 -528h-157z" />
<glyph unicode="&#x437;" horiz-adv-x="993" d="M57 330h129q35 -252 310 -252q160 0 223 66.5t63 164.5q0 86 -55 138.5t-170 52.5h-176v98h145q96 0 160 51t64 142q0 184 -261 184q-264 0 -284 -227h-127q27 336 414 335q176 0 283.5 -68.5t107.5 -215.5q0 -88 -51.5 -153.5t-118.5 -80.5v-4q86 -16 145.5 -75.5 t59.5 -172.5q0 -164 -123 -254t-301 -90q-203 0 -314.5 96.5t-122.5 264.5z" />
<glyph unicode="&#x438;" horiz-adv-x="1099" d="M121 0v1053h129v-901l569 901h160v-1053h-129v901l-569 -901h-160z" />
<glyph unicode="&#x439;" horiz-adv-x="1099" d="M121 0v1053h129v-901l569 901h160v-1053h-129v901l-569 -901h-160zM258 1462h80q10 -78 65.5 -123t145.5 -45q88 0 145.5 44t71.5 124h80q-47 -266 -299 -266q-127 0 -200 68.5t-89 197.5z" />
<glyph unicode="&#x43a;" horiz-adv-x="1024" d="M123 0v1053h129v-539l586 539h172l-449 -410l475 -643h-162l-407 555l-215 -199v-356h-129z" />
<glyph unicode="&#x43b;" horiz-adv-x="1099" d="M18 0v104q37 -18 115 -18q133 0 146 336l20 631h684v-1053h-129v944h-430l-18 -528q-8 -229 -76 -334t-199 -105q-57 0 -113 23z" />
<glyph unicode="&#x43c;" horiz-adv-x="1366" d="M121 0v1053h172l393 -908l389 908h172v-1053h-129v866h-6l-371 -866h-114l-371 866h-6v-866h-129z" />
<glyph unicode="&#x43d;" horiz-adv-x="1099" d="M121 0v1053h129v-449h600v449h129v-1053h-129v496h-600v-496h-129z" />
<glyph unicode="&#x43e;" d="M70 526q0 254 136 405.5t365 151.5q227 0 361.5 -151.5t134.5 -409.5q0 -256 -133 -404.5t-362.5 -148.5t-365.5 150.5t-136 406.5zM201 526q0 -209 99 -329.5t273 -120.5q168 0 266.5 120.5t98.5 327.5t-100.5 329t-268.5 122t-268 -122t-100 -327z" />
<glyph unicode="&#x43f;" horiz-adv-x="1099" d="M121 0v1053h858v-1053h-129v944h-600v-944h-129z" />
<glyph unicode="&#x440;" horiz-adv-x="1175" d="M129 -393v1446h117v-203q115 233 377 233q215 0 345 -153.5t130 -407.5q0 -250 -129 -402.5t-342 -152.5q-266 0 -373 228v-588h-125zM250 524q0 -207 97 -327.5t263 -120.5q162 0 259.5 121.5t97.5 324.5q0 207 -97.5 331t-263.5 124t-261 -121t-95 -332z" />
<glyph unicode="&#x441;" horiz-adv-x="1062" d="M74 516q0 258 134 412.5t357 154.5q182 0 296 -96t136 -266h-131q-51 256 -299 256q-166 0 -263 -122t-97 -329t94 -328.5t254 -121.5q133 0 217 78.5t105 222.5h129q-27 -184 -142.5 -296t-302.5 -112q-221 0 -354 149.5t-133 397.5z" />
<glyph unicode="&#x442;" horiz-adv-x="909" d="M0 944v109h911v-109h-391v-944h-129v944h-391z" />
<glyph unicode="&#x443;" horiz-adv-x="948" d="M-2 1053h141l285 -725q16 -43 63 -187q53 174 64 201l260 711h131l-414 -1092q-78 -209 -135 -284.5t-176 -75.5q-51 0 -113 10v113q57 -14 93 -15q78 0 117.5 57.5t91.5 198.5q10 29 16 43z" />
<glyph unicode="&#x444;" horiz-adv-x="1638" d="M78 524q0 272 108.5 417.5t302.5 145.5q178 0 263 -143h4v514h129v-514h4q84 143 262 143q195 0 303.5 -145.5t108.5 -417.5q0 -256 -118 -405.5t-292 -149.5q-84 0 -155.5 39t-108.5 103h-4v-504l-129 2v502q0 -2 -4 0q-37 -63 -109 -102.5t-156 -39.5 q-174 0 -291.5 149.5t-117.5 405.5zM207 524q0 -225 84 -335.5t229 -110.5q100 0 168 63.5t68 165.5v447q0 98 -67.5 161.5t-166.5 63.5q-139 0 -227 -112.5t-88 -342.5zM885 307q0 -102 67.5 -165.5t167.5 -63.5q145 0 229.5 110.5t84.5 335.5q0 229 -88.5 342t-227.5 113 q-98 0 -165.5 -63.5t-67.5 -161.5v-447z" />
<glyph unicode="&#x445;" horiz-adv-x="985" d="M2 0l408 553l-377 500h164l227 -308q12 -14 33.5 -47.5t31.5 -50.5q59 86 68 98l234 308h151l-373 -492l416 -561h-164l-280 385q-6 8 -15.5 21.5t-18.5 28t-20 30.5q-23 -37 -53 -78l-278 -387h-154z" />
<glyph unicode="&#x446;" d="M115 0v1053h129v-944h600v944h129v-944h145v-445h-129v336h-874z" />
<glyph unicode="&#x447;" horiz-adv-x="1024" d="M86 778v275h129v-289q0 -72 19.5 -118t59.5 -64.5t70.5 -22.5t81.5 -4q178 0 334 63v435h129v-1053h-129v502q-172 -63 -360 -64q-166 0 -250 81t-84 259z" />
<glyph unicode="&#x448;" horiz-adv-x="1615" d="M121 0v1053h129v-944h493v944h129v-944h494v944h129v-1053h-1374z" />
<glyph unicode="&#x449;" horiz-adv-x="1654" d="M115 0v1053h129v-944h493v944h129v-944h494v944h129v-944h145v-445h-129v336h-1390z" />
<glyph unicode="&#x44a;" horiz-adv-x="1251" d="M0 944v109h475v-414h399q154 0 244 -86t90 -234q0 -150 -90 -234.5t-244 -84.5h-528v944h-346zM475 109h369q113 0 174 54t61 156q0 100 -62.5 155.5t-172.5 55.5h-369v-421z" />
<glyph unicode="&#x44b;" horiz-adv-x="1366" d="M117 0v1053h129v-414h342q154 0 244 -86t90 -234q0 -150 -90.5 -234.5t-243.5 -84.5h-471zM246 109h311q113 0 174.5 54t61.5 156q0 100 -62.5 155.5t-173.5 55.5h-311v-421zM1120 0v1053h129v-1053h-129z" />
<glyph unicode="&#x44c;" horiz-adv-x="1024" d="M121 0v1053h129v-414h399q154 0 244 -86t90 -234q0 -150 -90 -234.5t-244 -84.5h-528zM250 109h368q113 0 174.5 54t61.5 156q0 100 -62.5 155.5t-173.5 55.5h-368v-421z" />
<glyph unicode="&#x44d;" horiz-adv-x="1062" d="M63 340h130q29 -127 110.5 -195.5t204.5 -68.5q150 0 243 109.5t103 297.5h-483v109h483q-16 178 -111.5 281.5t-246.5 103.5q-236 0 -293 -232h-133q29 160 140.5 249t287.5 89q223 0 357 -154.5t134 -412.5q0 -248 -133 -397.5t-354 -149.5q-176 0 -290 100.5 t-149 270.5z" />
<glyph unicode="&#x44e;" horiz-adv-x="1556" d="M121 0v1053h129v-449h242q23 221 155.5 350t341.5 129q227 0 361.5 -151.5t134.5 -409.5q0 -256 -133 -404.5t-363 -148.5q-223 0 -357 142.5t-145 384.5h-237v-496h-129zM618 526q0 -209 99.5 -329.5t273.5 -120.5q168 0 266.5 120.5t98.5 327.5t-100.5 329t-268.5 122 t-268.5 -122t-100.5 -327z" />
<glyph unicode="&#x44f;" horiz-adv-x="1062" d="M6 0l391 446q-143 10 -228 89t-85 215q0 139 87 221t232 82h533v-1053h-129v442h-262l-371 -442h-168zM213 747.5q0 -92.5 58.5 -144.5t162.5 -52h373v393h-373q-104 0 -162.5 -52t-58.5 -144.5z" />
<glyph unicode="&#x451;" horiz-adv-x="1062" d="M66 514q0 250 134 408.5t347 158.5q223 0 343 -157.5t120 -391.5v-36h-813q0 -182 89 -304t267 -122q260 0 321 276h125q-35 -178 -151.5 -279.5t-298.5 -101.5q-219 0 -351 149.5t-132 399.5zM197 600h684q-10 176 -100.5 275.5t-237.5 99.5q-160 0 -243 -104.5 t-103 -270.5zM279 1253v205h135v-205h-135zM651 1253v205h133v-205h-133z" />
<glyph unicode="&#x452;" horiz-adv-x="1099" d="M14 944v109h107v405h129v-405h477v-109h-477v-366h4q94 213 356 213q369 0 369 -408v-193q0 -238 -146.5 -405.5t-386.5 -175.5v121q186 10 295 145t109 334v153q0 319 -264 320q-150 0 -243 -100.5t-93 -262.5v-319h-129v944h-107z" />
<glyph unicode="&#x453;" horiz-adv-x="819" d="M121 0v1053h690v-109h-561v-944h-129zM311 1214l205 289h158l-258 -289h-105z" />
<glyph unicode="&#x454;" horiz-adv-x="1062" d="M74 516q0 258 134 412.5t357 154.5q176 0 288 -89t140 -249h-133q-57 231 -293 232q-152 0 -247 -103.5t-111 -281.5h493v-109h-493q10 -188 103.5 -297.5t242.5 -109.5q123 0 205 68.5t110 195.5h129q-35 -170 -148.5 -270.5t-289.5 -100.5q-221 0 -354 149.5 t-133 397.5z" />
<glyph unicode="&#x455;" horiz-adv-x="985" d="M66 344h124q0 -131 82 -200.5t230 -69.5q129 0 207.5 56t78.5 149q0 49 -25.5 85.5t-68.5 58t-85 35t-89 23.5q-14 2 -20 4q-14 4 -65.5 15.5t-72 16.5t-65.5 19.5t-65.5 26.5t-52.5 35t-47 48.5t-26.5 60t-11.5 77.5q0 137 103.5 217t284 80t289 -86t108.5 -250h-125 q-18 229 -285 230q-113 0 -179.5 -47t-66.5 -127q0 -39 14.5 -67.5t33 -46t64.5 -34t80 -26t109 -25.5q68 -16 109 -26.5t101.5 -36t95 -55t60 -80t25.5 -113.5q0 -145 -115.5 -234.5t-301.5 -89.5q-203 0 -315.5 98.5t-116.5 278.5z" />
<glyph unicode="&#x456;" horiz-adv-x="378" d="M125 0v1053h129v-1053h-129zM125 1253v211h129v-211h-129z" />
<glyph unicode="&#x457;" horiz-adv-x="378" d="M-63 1253v209h135v-209h-135zM125 0v1053h129v-1053h-129zM309 1253v209h133v-209h-133z" />
<glyph unicode="&#x458;" horiz-adv-x="378" d="M-57 -291q23 -2 49 -2q55 0 80.5 9.5t43 56.5t17.5 145v1135h127v-1123q0 -88 -7 -139t-30.5 -101t-77 -71.5t-139.5 -21.5q-20 0 -63 6v106zM133 1255v211h127v-211h-127z" />
<glyph unicode="&#x459;" horiz-adv-x="1593" d="M18 0v104q37 -18 115 -18q133 0 146 336l20 631h614v-414h285q154 0 244 -86.5t90 -233.5q0 -150 -90 -234.5t-244 -84.5h-414v944h-360l-18 -528q-8 -229 -76 -334t-199 -105q-57 0 -113 23zM913 109h254q113 0 174.5 54t61.5 156q0 100 -62.5 155.5t-173.5 55.5h-254 v-421z" />
<glyph unicode="&#x45a;" horiz-adv-x="1593" d="M121 0v1053h129v-414h518v414h129v-414h297q154 0 244 -86.5t90 -233.5q0 -150 -90 -234.5t-244 -84.5h-426v530h-518v-530h-129zM897 109h266q113 0 174.5 54t61.5 156q0 100 -62.5 155.5t-173.5 55.5h-266v-421z" />
<glyph unicode="&#x45b;" horiz-adv-x="1099" d="M14 944v109h107v405h129v-405h477v-109h-477v-366h4q94 213 356 213q369 0 369 -408v-383h-129v362q0 319 -264 320q-150 0 -243 -100.5t-93 -262.5v-319h-129v944h-107z" />
<glyph unicode="&#x45c;" horiz-adv-x="1024" d="M123 0v1053h129v-539l586 539h172l-449 -410l479 -643h-161l-412 555l-215 -199v-356h-129zM414 1214l204 289h158l-258 -289h-104z" />
<glyph unicode="&#x45e;" horiz-adv-x="948" d="M-2 1053h141l285 -725q16 -43 63 -187q53 174 64 201l260 711h131l-414 -1092q-78 -209 -135 -284.5t-176 -75.5q-51 0 -113 10v113q57 -14 93 -15q78 0 117.5 57.5t91.5 198.5q10 29 16 43zM197 1462h79q10 -78 65.5 -123t145.5 -45q88 0 145.5 44t72.5 124h79 q-47 -266 -299 -266q-127 0 -199.5 68.5t-88.5 197.5z" />
<glyph unicode="&#x45f;" horiz-adv-x="1099" d="M121 0v1053h129v-944h600v944h129v-1053h-365v-336h-129v336h-364z" />
<glyph unicode="&#x490;" horiz-adv-x="1062" d="M147 0v1458h762v334h140v-453h-762v-1339h-140z" />
<glyph unicode="&#x491;" horiz-adv-x="819" d="M121 0v1053h555v321h129v-430h-555v-944h-129z" />
<glyph unicode="&#x2000;" horiz-adv-x="923" />
<glyph unicode="&#x2001;" horiz-adv-x="1847" />
<glyph unicode="&#x2002;" horiz-adv-x="923" />
<glyph unicode="&#x2003;" horiz-adv-x="1847" />
<glyph unicode="&#x2004;" horiz-adv-x="615" />
<glyph unicode="&#x2005;" horiz-adv-x="461" />
<glyph unicode="&#x2006;" horiz-adv-x="307" />
<glyph unicode="&#x2007;" horiz-adv-x="307" />
<glyph unicode="&#x2008;" horiz-adv-x="230" />
<glyph unicode="&#x2009;" horiz-adv-x="369" />
<glyph unicode="&#x200a;" horiz-adv-x="102" />
<glyph unicode="&#x2010;" horiz-adv-x="757" d="M123 500v125h514v-125h-514z" />
<glyph unicode="&#x2011;" horiz-adv-x="757" d="M123 500v125h514v-125h-514z" />
<glyph unicode="&#x2012;" horiz-adv-x="757" d="M123 500v125h514v-125h-514z" />
<glyph unicode="&#x2013;" horiz-adv-x="1024" d="M0 500v125h1024v-125h-1024z" />
<glyph unicode="&#x2014;" horiz-adv-x="2048" d="M0 500v125h2048v-125h-2048z" />
<glyph unicode="&#x2018;" horiz-adv-x="569" d="M197 993v226q0 90 49 167.5t131 102.5v-88q-92 -53 -92 -195h80v-213h-168z" />
<glyph unicode="&#x2019;" horiz-adv-x="569" d="M190 963v88q92 53 93 194h-80v213h168v-225q0 -90 -49.5 -168t-131.5 -102z" />
<glyph unicode="&#x201a;" horiz-adv-x="569" d="M190 -197q92 59 93 197h-80v213h168v-225q0 -90 -49.5 -168t-131.5 -103v86z" />
<glyph unicode="&#x201c;" horiz-adv-x="757" d="M141 997v177q0 242 172 313v-86q-90 -53 -90 -197h78v-207h-160zM455 997v177q0 242 172 313v-86q-90 -53 -90 -197h77v-207h-159z" />
<glyph unicode="&#x201d;" horiz-adv-x="757" d="M127 969v86q90 53 90 196h-78v207h160v-176q0 -242 -172 -313zM440 969v86q90 53 90 196h-77v207h159v-176q0 -242 -172 -313z" />
<glyph unicode="&#x201e;" horiz-adv-x="757" d="M127 -197q90 53 90 197h-78v207h160v-176q0 -242 -172 -314v86zM440 -197q90 53 90 197h-77v207h159v-176q0 -242 -172 -314v86z" />
<glyph unicode="&#x2022;" horiz-adv-x="1024" d="M147 729.5q0 151.5 106.5 258t258.5 106.5t258.5 -106.5t106.5 -258t-106.5 -258t-258.5 -106.5t-258.5 106.5t-106.5 258z" />
<glyph unicode="&#x2026;" horiz-adv-x="2048" d="M270 0v205h144v-205h-144zM952 0v205h144v-205h-144zM1634 0v205h144v-205h-144z" />
<glyph unicode="&#x202f;" horiz-adv-x="369" />
<glyph unicode="&#x2039;" horiz-adv-x="530" d="M109 481v127l272 256v-137l-191 -182l191 -183v-137z" />
<glyph unicode="&#x203a;" horiz-adv-x="530" d="M152 227v138l190 182l-190 182v137l270 -256v-129z" />
<glyph unicode="&#x205f;" horiz-adv-x="461" />
<glyph unicode="&#x2122;" horiz-adv-x="2027" d="M244 1382v76h596v-76h-256v-653h-84v653h-256zM975 729v729h127l231 -604l232 604h123v-729h-76v645l-246 -645h-72l-243 645v-645h-76z" />
<glyph unicode="&#x25fc;" horiz-adv-x="1054" d="M0 0v1055h1055v-1055h-1055z" />
</font>
</defs>
</svg>
